<svg width="50" height="50" viewBox="0 0 50 50" fill="none" xmlns="http://www.w3.org/2000/svg">
<path d="M7.75977 30.25H9.07946V36.6H11.3544V37.8535H7.76529L7.75977 30.25Z" fill="#0F146D"/>
<path d="M14.4101 32.1545C14.755 32.1502 15.0961 32.2257 15.407 32.3751C15.7178 32.5245 15.9899 32.7438 16.2019 33.0159V32.2677H17.4333V37.864H16.2019V37.1158C15.9899 37.3878 15.7178 37.6071 15.407 37.7565C15.0961 37.906 14.755 37.9815 14.4101 37.9772C12.875 37.9772 11.71 36.6657 11.71 35.0644C11.71 33.4631 12.875 32.1545 14.4101 32.1545ZM14.6337 33.2754C13.6371 33.2754 12.9772 34.0595 12.9772 35.0644C12.9772 36.0694 13.6481 36.8562 14.6337 36.8562C15.6194 36.8562 16.2902 36.0722 16.2902 35.0644C16.2902 34.0567 15.6304 33.2754 14.6337 33.2754Z" fill="#0F146D"/>
<path d="M18.3916 36.892L21.3264 33.3857H18.4358V32.2676H22.9167V33.2532L19.9929 36.7457H22.9829V37.8639H18.3916V36.892Z" fill="#0F146D"/>
<path d="M26.1134 32.1545C26.4583 32.1502 26.7994 32.2257 27.1103 32.3751C27.4211 32.5245 27.6932 32.7438 27.9052 33.0159V32.2677H29.1365V37.864H27.9052V37.1158C27.6932 37.3878 27.4211 37.6071 27.1103 37.7565C26.7994 37.906 26.4583 37.9815 26.1134 37.9772C24.5783 37.9772 23.416 36.6657 23.416 35.0644C23.416 33.4631 24.5783 32.1545 26.1134 32.1545ZM26.337 33.2754C25.3403 33.2754 24.6805 34.0595 24.6805 35.0644C24.6805 36.0694 25.3514 36.8562 26.337 36.8562C27.3227 36.8562 27.9935 36.0722 27.9935 35.0644C27.9935 34.0567 27.3337 33.2754 26.337 33.2754Z" fill="#0F146D"/>
<path d="M32.6542 32.1539C32.9987 32.1493 33.3396 32.2248 33.65 32.3742C33.9604 32.5237 34.232 32.7431 34.4433 33.0152V29.7988H35.6746V37.8633H34.4433V37.1151C34.232 37.3873 33.9604 37.6067 33.65 37.7562C33.3396 37.9056 32.9987 37.9811 32.6542 37.9765C31.1192 37.9765 29.9541 36.6651 29.9541 35.0638C29.9541 33.4625 31.1192 32.1539 32.6542 32.1539ZM32.8779 33.2748C31.8812 33.2748 31.2213 34.0589 31.2213 35.0638C31.2213 36.0688 31.895 36.8556 32.8779 36.8556C33.8607 36.8556 34.5344 36.0715 34.5344 35.0638C34.5344 34.0561 33.8745 33.2748 32.8779 33.2748Z" fill="#0F146D"/>
<path d="M39.192 32.1545C39.5365 32.15 39.8773 32.2254 40.1878 32.3749C40.4982 32.5243 40.7697 32.7438 40.981 33.0159V32.2677H42.2096V37.864H40.9755V37.1158C40.7642 37.3879 40.4927 37.6073 40.1822 37.7568C39.8718 37.9063 39.531 37.9817 39.1865 37.9772C37.6514 37.9772 36.4863 36.6658 36.4863 35.0644C36.4863 33.4631 37.6569 32.1545 39.192 32.1545ZM39.4156 33.2754C38.4189 33.2754 37.7591 34.0595 37.7591 35.0644C37.7591 36.0694 38.4327 36.8563 39.4156 36.8563C40.3985 36.8563 41.0721 36.0722 41.0721 35.0644C41.0721 34.0567 40.4123 33.2754 39.4156 33.2754Z" fill="#0F146D"/>
<path d="M24.9923 28.3222C24.8509 28.3232 24.7117 28.287 24.5886 28.2172C23.5348 27.6076 15.7306 22.7143 15.4358 22.5649C15.3256 22.5134 15.2304 22.4343 15.1597 22.3353C15.0889 22.2363 15.0449 22.1207 15.0319 21.9997V15.1361C15.0291 15.0101 15.0585 14.8854 15.1171 14.7738C15.1758 14.6622 15.2618 14.5674 15.3672 14.4982L15.4237 14.4659C16.1787 13.9976 18.7061 12.4553 19.1058 12.2332C19.1975 12.1788 19.302 12.1495 19.4086 12.1484C19.5086 12.1496 19.6069 12.1745 19.6953 12.2211C19.6953 12.2211 23.232 14.5265 23.7731 14.7324C24.1527 14.9068 24.5666 14.9937 24.9843 14.9867C25.4576 14.9966 25.9253 14.8825 26.3408 14.6557C26.8697 14.3771 30.249 12.2332 30.2854 12.2332C30.3706 12.1818 30.4685 12.1552 30.568 12.1565C30.6747 12.157 30.7793 12.1863 30.8708 12.2413C31.331 12.4957 34.4641 14.4134 34.5973 14.4982C34.7056 14.5635 34.795 14.656 34.8566 14.7665C34.9182 14.8769 34.9499 15.0016 34.9486 15.128V21.9916C34.9364 22.1128 34.8928 22.2288 34.8219 22.328C34.7511 22.4271 34.6556 22.506 34.5448 22.5568C34.2501 22.7183 26.47 27.6116 25.3961 28.2092C25.2738 28.2817 25.1345 28.3207 24.9923 28.3222Z" fill="url(#paint0_linear_9719_1016)"/>
<path d="M24.9521 28.322H24.9925C25.134 28.323 25.2732 28.2868 25.3963 28.217C26.45 27.6074 34.2503 22.7141 34.545 22.5647C34.6557 22.5139 34.7513 22.435 34.8221 22.3358C34.8929 22.2367 34.9366 22.1207 34.9488 21.9994V15.1359C34.95 15.0197 34.9237 14.9048 34.872 14.8008L24.9521 20.2472V28.322Z" fill="#F624A0"/>
<path opacity="0.41" d="M15.02 21.9871C15.0349 22.1102 15.0818 22.2272 15.1563 22.3265C15.2307 22.4257 15.3299 22.5036 15.4439 22.5523C15.7387 22.7138 23.5429 27.6071 24.5967 28.2046C24.7054 28.2667 24.827 28.3026 24.952 28.3096V20.2348L15.0644 14.8691C15.0361 14.951 15.0211 15.0369 15.02 15.1235L15.02 21.9871Z" fill="#F58000"/>
<defs>
<linearGradient id="paint0_linear_9719_1016" x1="15.0317" y1="20.2355" x2="34.9767" y2="20.2355" gradientUnits="userSpaceOnUse">
<stop stop-color="#FF9200"/>
<stop offset="0.29" stop-color="#F36D00"/>
<stop offset="0.32" stop-color="#F4680B"/>
<stop offset="0.57" stop-color="#F83C72"/>
<stop offset="0.78" stop-color="#FC1CBE"/>
<stop offset="0.93" stop-color="#FE08ED"/>
<stop offset="1" stop-color="#FF00FF"/>
</linearGradient>
</defs>
</svg>
