<svg width="128" height="128" viewBox="0 0 64 64" fill="none" xmlns="http://www.w3.org/2000/svg">
<path d="M46 48.6602L32 56.6602V40.6602L46 32.6602V48.6602Z" fill="white"/>
<path d="M32.5 40.6602V17.9347C32.5 17.6585 32.7239 17.4347 33 17.4347C33.2761 17.4347 33.5 17.6585 33.5 17.9347V40.6602C33.5 41.1985 33.2115 41.6959 32.7441 41.963L4.74414 57.963C4.27993 58.2281 3.70947 58.2255 3.24707 57.9571C2.78474 57.6887 2.50001 57.1948 2.5 56.6602V24.6602C2.5 24.122 2.7885 23.6246 3.25586 23.3575L21.752 12.7882C21.9917 12.6513 22.2976 12.735 22.4346 12.9747C22.5714 13.2144 22.4877 13.5203 22.248 13.6573L3.75195 24.2257C3.59616 24.3147 3.5 24.4808 3.5 24.6602V56.6602C3.50001 56.8385 3.59488 57.0034 3.74902 57.0929C3.90309 57.1822 4.09336 57.1831 4.24805 57.0948L32.248 41.0948C32.4038 41.0058 32.5 40.8397 32.5 40.6602Z" fill="#374874"/>
<path d="M46 32.6602L25 20.6602L11 28.6602L32 40.6602L46 32.6602Z" fill="white"/>
<path d="M32 55.3678V40.6602L12.1221 29.3014C11.6221 29.0157 11 29.3767 11 29.9526V43.4996C11 44.2173 11.3846 44.88 12.0077 45.2361L30.8779 56.019C31.3779 56.3047 32 55.9437 32 55.3678Z" fill="#C1DBF6"/>
<path d="M46 48.6602L33.1969 55.9763C32.6636 56.281 32 55.8959 32 55.2817V40.6602L44.8779 33.3014C45.3779 33.0157 46 33.3767 46 33.9526V48.6602Z" fill="#FBDBD0"/>
<path d="M11 43.2081V30.1114C11 29.2143 11.4808 28.3856 12.2598 27.9405L23.7598 21.3692C24.5283 20.9301 25.4717 20.9301 26.2402 21.3692L44.7402 31.9405C45.5192 32.3856 46 33.2143 46 34.1114V47.2081C46 48.1052 45.5192 48.9339 44.7402 49.379L33.2402 55.9503C32.4717 56.3894 31.5283 56.3894 30.7598 55.9503L12.2598 45.379C11.4808 44.9339 11 44.1052 11 43.2081ZM12 43.2081C12 43.7464 12.2885 44.2438 12.7559 44.5108L31.2559 55.0821C31.717 55.3455 32.283 55.3455 32.7441 55.0821L44.2441 48.5108C44.7115 48.2438 45 47.7464 45 47.2081V34.1114C45 33.5731 44.7115 33.0757 44.2441 32.8087L25.7441 22.2374C25.283 21.9739 24.717 21.974 24.2559 22.2374L12.7559 28.8087C12.2885 29.0757 12 29.5731 12 30.1114V43.2081Z" fill="#374874"/>
<path d="M25.0096 14.7831C25.0096 16.4712 26.1948 17.1555 27.6567 16.3114C29.1187 15.4674 30.3038 13.4146 30.3038 11.7265C30.3038 10.0384 29.1187 9.35411 27.6567 10.1982C26.1948 11.0422 25.0096 13.095 25.0096 14.7831Z" fill="white"/>
<path fill-rule="evenodd" clip-rule="evenodd" d="M27.6567 16.3114C26.1948 17.1555 25.0096 16.4713 25.0096 14.7831C25.0096 13.5978 25.5939 12.2327 26.4481 11.2325C28.1247 10.9129 29.4509 11.6785 30.0124 13.2903C29.5733 14.5302 28.6833 15.7188 27.6567 16.3114Z" fill="#FBDBD0"/>
<path d="M27.6457 9.70453L27.5095 9.78705L27.4985 9.7934V9.79437C25.8707 10.8295 24.5765 13.1301 24.5765 15.0331V15.0458L24.5799 15.2011V15.2138L24.5808 15.2133C24.6633 17.0453 26.0086 17.763 27.6567 16.8115L27.6677 16.8051L27.8038 16.7226L27.8148 16.7162V16.7153C29.3903 15.7135 30.6527 13.5268 30.7326 11.6616L30.7334 11.6484L30.7368 11.4892V11.4765C30.7368 9.51223 29.3578 8.71605 27.6567 9.69818L27.6457 9.70453ZM27.6609 10.6957C28.8818 9.99351 29.8708 10.5661 29.8708 11.9765L29.8683 12.1176C29.8078 13.4528 28.9044 15.0169 27.7785 15.7372L27.6533 15.8124C26.4726 16.4921 25.5085 15.9802 25.4459 14.6708L25.4426 14.5331C25.4426 13.168 26.3694 11.5166 27.5357 10.7709L27.6609 10.6957Z" fill="#374874"/>
<path d="M27.6517 6.90997L27.3794 7.07501L27.3743 7.07794C26.8591 7.40556 26.362 7.80449 25.8935 8.25812C25.7802 8.36777 25.7198 8.54497 25.7582 8.65363C25.7965 8.76221 25.919 8.76121 26.0322 8.65167C26.4634 8.23415 26.9214 7.86724 27.3963 7.56525V7.56427L27.6594 7.40558C30.4551 5.79311 32.721 7.10234 32.721 10.3309L32.7143 10.6356L32.6999 10.8802C32.6567 11.4526 32.5483 12.041 32.3836 12.6292C32.3408 12.7827 32.3965 12.8954 32.5079 12.8807C32.6194 12.8659 32.7448 12.7291 32.7879 12.5755C32.9923 11.8451 33.1172 11.1148 33.1473 10.4109V10.4051L33.1541 10.0867V10.0809C33.154 6.57522 30.6928 5.15425 27.6568 6.90704L27.6517 6.90997Z" fill="#374874"/>
<path d="M27.6515 4.46115L27.2709 4.69162L27.265 4.69504V4.69601C26.9976 4.86605 26.7338 5.04975 26.4743 5.24631C26.3562 5.33575 26.2749 5.51018 26.2933 5.63596C26.3117 5.76175 26.4229 5.79135 26.5411 5.70187C26.7858 5.51653 27.0346 5.34281 27.287 5.18234V5.18137L27.66 4.95627C31.6267 2.66808 34.8419 4.52579 34.8419 9.10666L34.8326 9.53879L34.8123 9.8884C34.7857 10.24 34.7415 10.5962 34.6812 10.9543C34.6562 11.1036 34.7302 11.1938 34.847 11.1555C34.9639 11.1171 35.0789 10.9642 35.1041 10.8147C35.1893 10.3084 35.2437 9.80698 35.2648 9.31467L35.2656 9.30734L35.2749 8.86252V8.85666C35.2749 3.99841 31.864 2.0291 27.6566 4.45822L27.6515 4.46115Z" fill="#374874"/>
<path d="M41.0596 41.1822C40.6344 41.1822 40.1563 41.3078 39.6509 41.5995C37.8806 42.6216 36.4459 45.0967 36.4459 47.128C36.4459 48.0927 36.7699 48.7831 37.2995 49.1331L37.3538 49.1671C37.368 49.1757 46.026 54.0325 46.4926 54.3144C46.6254 54.3946 46.7089 54.439 46.7089 54.439C46.9277 54.5441 47.1745 54.5985 47.443 54.5985C47.8753 54.5985 48.3637 54.4572 48.8808 54.1587C50.6506 53.1366 52.0857 50.6618 52.0857 48.6303C52.0857 47.5628 51.6888 46.8309 51.0556 46.5247L46.54 43.9799L42.0244 41.4352C41.7525 41.2752 41.4256 41.1822 41.0596 41.1822Z" fill="white"/>
<path d="M37.2995 49.1331C36.7699 48.7831 36.4459 48.0927 36.4459 47.128C36.4459 46.2364 36.7224 45.2592 37.1823 44.357L50.8615 52.2287C50.3162 53.036 49.6284 53.727 48.8808 54.1587C48.3637 54.4572 47.8753 54.5985 47.443 54.5985C47.1745 54.5985 46.9277 54.5441 46.7089 54.439C46.7089 54.439 46.6254 54.3946 46.4926 54.3144C46.026 54.0325 37.3681 49.1757 37.3538 49.1671L37.2995 49.1331Z" fill="#C1DBF6"/>
<path d="M45.6754 52.3307C45.6754 50.2991 47.1105 47.8243 48.8808 46.8023C50.6506 45.7802 52.0857 46.5986 52.0857 48.6294C52.0857 50.6602 50.6506 53.1357 48.8808 54.1578C47.1106 55.1799 45.6754 54.3618 45.6754 52.3307Z" fill="#FBDBD0"/>
<path d="M41.9536 50.3765C41.9536 49.5448 42.2091 48.6205 42.645 47.7544C42.7069 47.6311 42.6569 47.4805 42.5336 47.4185C42.4103 47.3565 42.2597 47.4065 42.1977 47.5298C41.7359 48.4475 41.4536 49.4489 41.4536 50.3765C41.4536 51.4274 41.8203 52.2338 42.4848 52.6323C42.6032 52.7033 42.7576 52.6648 42.8286 52.5464C42.8991 52.4281 42.8607 52.2745 42.7426 52.2036C42.2809 51.9269 41.9536 51.3229 41.9536 50.3765Z" fill="#374874"/>
<path d="M39.4999 48.9728C39.4999 48.1411 39.7555 47.2168 40.1913 46.3507C40.2533 46.2274 40.2033 46.0768 40.08 46.0148C39.9567 45.9529 39.8061 46.0028 39.7441 46.1261C39.2823 47.0439 38.9999 48.0452 38.9999 48.9728C38.9999 50.0237 39.3667 50.8301 40.0312 51.2286C40.1496 51.2996 40.304 51.2611 40.3749 51.1427C40.4455 51.0244 40.4071 50.8709 40.289 50.7999C39.8273 50.5232 39.4999 49.9192 39.4999 48.9728Z" fill="#374874"/>
<path d="M47.1104 43.7314C46.4943 43.4167 45.6222 43.1856 44.667 43.7373C44.5475 43.8063 44.5063 43.9595 44.5752 44.0791C44.6442 44.1985 44.7975 44.2397 44.917 44.1709C45.67 43.736 46.3508 43.9044 46.8838 44.1767C47.0067 44.2392 47.157 44.1901 47.2197 44.0673C47.2823 43.9444 47.2332 43.7942 47.1104 43.7314Z" fill="#374874"/>
<path d="M45.1104 42.5909C44.4943 42.2762 43.6222 42.0451 42.667 42.5968C42.5475 42.6658 42.5063 42.819 42.5752 42.9386C42.6442 43.058 42.7975 43.0991 42.917 43.0303C43.67 42.5955 44.3508 42.7639 44.8838 43.0362C45.0067 43.0987 45.157 43.0496 45.2197 42.9268C45.2823 42.8039 45.2332 42.6537 45.1104 42.5909Z" fill="#374874"/>
<path d="M46.7089 54.4389C46.7089 54.4389 46.6253 54.3946 46.4926 54.3144C46.2252 54.1529 43.2688 52.4895 40.7898 51.0967L39.8928 51.641C42.4457 53.0751 45.7381 54.9267 46.02 55.097C46.1699 55.1876 46.2692 55.2407 46.28 55.2464L46.2963 55.255L46.3128 55.263C46.6578 55.4288 47.038 55.5128 47.443 55.5128C48.0541 55.5128 48.6916 55.3236 49.338 54.9504C51.3915 53.7645 53 50.9884 53 48.6302C53 47.2652 52.4532 46.2091 51.4978 45.7234L45.5477 42.3713V43.4207L51.0556 46.5247C51.6888 46.8309 52.0857 47.5628 52.0857 48.6302C52.0857 50.6618 50.6506 53.1366 48.8808 54.1587C48.3637 54.4572 47.8753 54.5985 47.4429 54.5985C47.1745 54.5985 46.9277 54.5441 46.7089 54.4389Z" fill="#374874"/>
<path d="M39.6514 41.5992C37.8813 42.6212 36.4465 45.0964 36.4463 47.1275C36.4463 48.0923 36.7702 48.7834 37.2998 49.1334L41.0596 51.2467L41.4707 51.5328L41.2109 51.9059L37.0391 49.5602L37.0234 49.5504C36.3064 49.0764 35.9463 48.1937 35.9463 47.1275C35.9464 46.0031 36.34 44.7909 36.9521 43.735C37.5645 42.6786 38.4229 41.7315 39.4014 41.1666C39.9714 40.8377 40.5344 40.6822 41.0596 40.6822C41.5079 40.6822 41.9192 40.7952 42.2686 40.9986L46.9609 43.6246L46.6475 44.0777L46.2363 43.7926L42.0244 41.4352C41.7526 41.2752 41.4256 41.1822 41.0596 41.1822L40.8975 41.1881C40.5144 41.2161 40.0934 41.3442 39.6514 41.5992Z" fill="#374874"/>
<path d="M50.4189 47.9502C50.0647 47.9502 49.7046 48.0543 49.3486 48.2598C48.1703 48.9401 47.2471 50.5335 47.2471 51.8867C47.2471 52.6015 47.5043 53.1656 47.9717 53.4746L47.9775 53.4785L47.9824 53.4814L48.0137 53.501L48.0176 53.5039L48.0215 53.5059C48.0339 53.5133 56.7284 58.4883 56.9951 58.6494C57.0811 58.7013 57.1383 58.7321 57.1445 58.7354L57.1533 58.7402L57.1631 58.7451C57.3609 58.8401 57.5793 58.8877 57.8115 58.8877C58.162 58.8877 58.5277 58.7794 58.8984 58.5654C60.0767 57.885 61 56.2916 61 54.9385C60.9999 54.1554 60.6858 53.5491 60.1377 53.2705L51.2451 48.1719L51.2422 48.1699L51.2383 48.168C50.9964 48.0256 50.7132 47.9502 50.4189 47.9502Z" fill="#374874"/>
</svg>
